<?xml version="1.0" ?><!DOCTYPE svg  PUBLIC '-//W3C//DTD SVG 1.1//EN'  'http://www.w3.org/Graphics/SVG/1.1/DTD/svg11.dtd'><svg enable-background="new 0 0 24 24" height="24px" id="Layer_1" version="1.1" viewBox="0 0 24 24" width="24px" xml:space="preserve" xmlns="http://www.w3.org/2000/svg" xmlns:xlink="http://www.w3.org/1999/xlink"><g id="icon"><circle cx="12.0017" cy="12.0017" fill="#3CAA88" r="10.9983"/><path d="M11.231,18.2944c-0.4347,0,-0.8261,-0.2744,-0.9738,-0.6827l-0.4076,-1.2536l-1.2576,0.4086c-0.0952,0.0311,-0.1942,0.0468,-0.2942,0.0468c-0.1592,0,-0.3205,-0.041,-0.4666,-0.1186c-0.2517,-0.1337,-0.441,-0.3666,-0.5195,-0.6391c-0.0732,-0.2543,-0.047,-0.5239,0.0737,-0.7593c0.1202,-0.2343,0.3222,-0.4125,0.569,-0.5016l1.2546,-0.4077l-0.8265,-2.5428l-1.2571,0.4085c-0.0956,0.031,-0.1946,0.0468,-0.2943,0.0468c-0.1591,0,-0.3205,-0.041,-0.4667,-0.1187c-0.2516,-0.1337,-0.4409,-0.3665,-0.5193,-0.639c-0.0732,-0.2543,-0.0471,-0.5239,0.0735,-0.7593c0.1202,-0.2342,0.3222,-0.4123,0.569,-0.5015l1.2542,-0.4074L7.345,8.6524c-0.0857,-0.2635,-0.0636,-0.5445,0.0622,-0.7913c0.1257,-0.2467,0.34,-0.4297,0.6034,-0.5153c0.1041,-0.0339,0.212,-0.051,0.3205,-0.051c0.2171,0,0.4258,0.0671,0.6034,0.194c0.1811,0.1295,0.3133,0.3101,0.3824,0.5226l0.3967,1.2211l2.542,-0.8263l-0.3967,-1.2211c-0.0856,-0.2633,-0.0635,-0.5441,0.0622,-0.7908c0.1257,-0.2467,0.34,-0.4297,0.6033,-0.5152c0.1043,-0.0339,0.2122,-0.0511,0.3207,-0.0511c0.2171,0,0.4256,0.0671,0.6032,0.1941c0.1811,0.1294,0.3133,0.3101,0.3823,0.5225l0.3967,1.2207l1.2205,-0.3967c0.1047,-0.034,0.2129,-0.0513,0.3215,-0.0513c0.1637,0,0.3216,0.0382,0.4695,0.1136c0.2467,0.1257,0.4297,0.3399,0.5153,0.6033c0.0856,0.2634,0.0635,0.5443,-0.0623,0.791c-0.1257,0.2468,-0.34,0.4297,-0.6033,0.5153l-1.2206,0.3966l0.8261,2.5421l1.2204,-0.3966c0.1048,-0.034,0.213,-0.0514,0.3216,-0.0514c0.1636,0,0.3215,0.0382,0.4693,0.1136c0.2468,0.1257,0.4297,0.3399,0.5154,0.6033c0.0854,0.2631,0.0632,0.544,-0.0626,0.791c-0.1257,0.2466,-0.3401,0.4295,-0.6038,0.5153l-1.2197,0.3966l0.4083,1.2567c0.0813,0.2501,0.0558,0.5203,-0.0718,0.7607c-0.1334,0.251,-0.3664,0.44,-0.6391,0.5186c-0.0915,0.0263,-0.1881,0.0397,-0.2871,0.0397c-0.4348,0,-0.8262,-0.2742,-0.9739,-0.6824l-0.4074,-1.2529l-2.5429,0.8261l0.4084,1.2567c0.0813,0.2503,0.0558,0.5206,-0.0719,0.7609c-0.1335,0.2513,-0.3665,0.4405,-0.639,0.5189C11.4257,18.2809,11.3291,18.2944,11.231,18.2944zM10.3685,11.2036l0.8124,2.5427L13.7,12.9282v-0.0843l0.0012,-0.0164l-0.8022,-2.4464L10.3685,11.2036z" fill="#FFFFFF"/><path d="M4.2218,19.7782C6.2124,21.7688,8.9624,23,12,23c6.0751,0,11,-4.9249,11,-11c0,-3.0376,-1.2312,-5.7876,-3.2218,-7.7782L4.2218,19.7782z" fill="#231F20" opacity="0.1"/></g></svg>