<?xml version="1.0" standalone="no"?>
<!DOCTYPE svg PUBLIC "-//W3C//DTD SVG 20010904//EN"
 "http://www.w3.org/TR/2001/REC-SVG-20010904/DTD/svg10.dtd">
<svg version="1.0" xmlns="http://www.w3.org/2000/svg"
 width="640.000000pt" height="640.000000pt" viewBox="0 0 640.000000 640.000000"
 preserveAspectRatio="xMidYMid meet">
<metadata>
Created by potrace 1.15, written by Peter Selinger 2001-2017
</metadata>
<g transform="translate(0.000000,640.000000) scale(0.100000,-0.100000)"
fill="#000000" stroke="none">
<path d="M1532 3743 l3 -308 968 -3 967 -2 0 310 0 310 -970 0 -970 0 2 -307z
m1478 220 c0 -5 -23 -90 -52 -190 l-52 -183 -33 0 c-18 0 -33 3 -33 8 0 4 23
89 52 190 l52 182 33 0 c18 0 33 -3 33 -7z m150 0 c0 -4 -23 -89 -52 -190
l-52 -183 -33 0 c-18 0 -33 3 -33 8 0 4 23 89 51 190 l52 182 34 0 c18 0 33
-3 33 -7z m-1304 -144 c20 -19 21 -19 38 0 25 27 61 34 100 17 42 -17 60 -64
54 -138 -4 -43 -2 -51 14 -56 11 -2 18 -13 18 -28 0 -22 -4 -24 -55 -24 l-55
0 0 88 c0 93 -8 112 -45 112 -35 0 -45 -20 -45 -87 0 -49 3 -63 15 -63 9 0 15
-9 15 -25 0 -23 -3 -25 -50 -25 l-50 0 0 78 c0 84 -16 122 -50 122 -35 0 -50
-28 -50 -91 0 -56 1 -59 25 -59 20 0 25 -5 25 -25 0 -25 -1 -25 -80 -25 -75 0
-80 1 -80 21 0 12 8 23 20 26 18 5 20 14 20 75 0 61 -2 71 -20 75 -13 3 -20
14 -20 29 0 22 4 24 55 24 45 0 55 -3 55 -17 0 -15 2 -15 18 -1 35 32 92 31
128 -3z m436 21 c56 -16 88 -63 88 -129 0 -47 -4 -57 -33 -86 -63 -63 -167
-56 -214 14 -49 73 -11 175 73 201 39 11 44 11 86 0z m1058 -18 c23 -17 25
-27 28 -101 2 -61 7 -83 17 -88 20 -7 19 -39 -1 -47 -31 -12 -54 -6 -69 18
l-16 24 -24 -24 c-39 -39 -119 -25 -131 23 -16 62 30 103 116 103 39 0 41 1
38 28 -3 23 -8 27 -40 30 -29 3 -38 -1 -43 -17 -7 -23 -9 -24 -42 -15 -19 5
-22 11 -17 33 9 35 16 42 56 51 45 12 98 4 128 -18z m-696 2 c7 -18 1 -27 -56
-89 -20 -22 -46 -52 -58 -67 l-21 -28 41 0 c34 0 43 4 47 21 4 15 12 19 32 17
23 -3 26 -7 23 -38 -2 -19 -6 -38 -9 -42 -2 -5 -53 -8 -113 -8 -87 0 -109 3
-114 15 -3 10 19 44 64 94 38 43 66 81 63 85 -15 14 -63 5 -73 -14 -6 -12 -21
-20 -35 -20 -26 0 -32 19 -19 68 6 21 11 22 114 22 90 0 109 -3 114 -16z"/>
<path d="M2206 3771 c-20 -22 -24 -78 -7 -110 16 -30 74 -29 95 1 51 72 -31
172 -88 109z"/>
<path d="M3039 3370 c-71 -21 -109 -71 -109 -140 0 -93 46 -124 245 -165 186
-38 219 -60 219 -144 0 -100 -73 -146 -229 -146 -73 1 -99 5 -138 24 -56 27
-87 67 -94 121 -3 22 -10 40 -16 40 -16 0 -1 -76 23 -114 14 -23 41 -45 77
-63 51 -24 68 -27 157 -27 87 0 108 3 149 24 73 37 107 106 87 180 -17 62 -53
84 -187 115 -243 55 -273 71 -273 147 0 95 67 141 205 141 44 0 97 -5 117 -12
46 -15 95 -70 104 -116 6 -32 24 -50 24 -24 0 66 -59 140 -127 158 -44 12
-195 13 -234 1z"/>
<path d="M1580 3071 c0 -194 4 -301 10 -301 6 0 10 101 10 283 l0 282 29 -50
c15 -27 61 -111 101 -185 153 -284 177 -325 192 -328 10 -2 28 21 53 70 66
127 256 473 266 483 5 5 9 -99 9 -273 0 -181 4 -282 10 -282 6 0 10 107 10
301 0 280 -1 300 -17 297 -18 -3 -42 -43 -158 -263 -35 -66 -88 -164 -118
-219 l-55 -98 -45 83 c-25 46 -95 176 -156 289 -60 113 -117 206 -126 208 -13
3 -15 -31 -15 -297z"/>
<path d="M2472 3126 c-162 -351 -164 -356 -149 -356 7 0 30 41 52 91 22 50 43
93 47 95 5 4 281 7 336 5 7 -1 33 -44 57 -96 25 -52 49 -95 55 -95 5 0 10 2
10 4 0 5 -144 322 -225 494 -26 56 -53 102 -59 102 -6 0 -62 -110 -124 -244z
m154 157 c15 -32 51 -111 81 -177 29 -65 52 -120 50 -123 -2 -2 -77 -2 -165
-1 l-161 3 81 178 c44 97 82 177 84 177 3 0 16 -26 30 -57z"/>
<path d="M3500 3070 l0 -300 235 0 c150 0 235 4 235 10 0 6 -82 10 -225 10
l-225 0 0 140 0 140 215 0 c137 0 215 4 215 10 0 6 -78 10 -215 10 l-215 0 0
130 0 130 219 0 c136 0 222 4 226 10 4 7 -75 10 -229 10 l-236 0 0 -300z"/>
<path d="M4040 3070 c0 -193 4 -300 10 -300 6 0 10 100 10 281 0 166 4 279 9
277 5 -1 112 -128 236 -280 125 -153 234 -278 241 -278 12 0 14 51 14 300 0
190 -4 300 -10 300 -6 0 -11 -107 -12 -286 l-3 -287 -234 287 c-129 157 -241
286 -248 286 -10 0 -13 -59 -13 -300z"/>
<path d="M4896 3304 c-16 -15 -19 -26 -30 -92 l-6 -32 43 6 c23 4 48 11 55 17
8 6 12 6 12 -1 0 -6 -16 -20 -35 -32 -29 -18 -33 -25 -29 -50 l6 -28 -38 13
c-39 13 -55 9 -96 -24 -48 -38 2 -136 72 -142 19 -2 52 -14 73 -28 50 -32 129
-40 171 -17 17 9 42 31 54 49 18 25 22 27 17 10 -3 -13 -2 -23 3 -23 15 0 32
50 34 98 1 30 5 41 14 38 15 -6 25 33 21 81 -3 34 -17 59 -17 30 0 -8 -9 -18
-20 -22 -11 -3 -19 -11 -17 -17 1 -6 -3 -12 -10 -15 -6 -2 -14 9 -18 26 -7 33
-27 54 -56 58 -14 2 -19 -3 -19 -18 0 -16 -4 -19 -17 -14 -33 12 -38 10 -41
-16 -2 -14 4 -31 12 -39 9 -7 16 -22 16 -34 0 -17 -7 -21 -37 -24 -23 -1 -43
4 -55 14 -11 10 -18 12 -18 6 0 -7 5 -12 12 -12 6 0 9 -2 6 -5 -3 -3 -12 -3
-20 0 -10 4 -14 18 -13 41 2 28 9 40 34 55 24 14 31 26 29 42 -2 18 -8 21 -33
19 -21 -2 -37 3 -50 18 -18 20 -18 21 3 43 34 36 22 55 -12 21z"/>
<path d="M4636 3067 c-27 -91 77 -266 195 -328 39 -21 57 -24 159 -24 123 0
156 10 237 71 39 29 101 130 109 175 4 26 0 20 -19 -24 -35 -80 -64 -115 -134
-160 -54 -34 -69 -34 -85 0 -11 22 -22 29 -58 34 -25 4 -63 14 -84 23 -39 16
-64 13 -36 -4 26 -16 -8 -12 -41 6 l-30 15 23 20 23 21 -24 -16 c-15 -9 -35
-13 -50 -9 l-26 6 24 -27 c37 -40 10 -31 -35 12 -55 53 -74 79 -75 105 -1 18
-3 16 -9 -8 -6 -23 -8 -25 -9 -8 -2 31 -12 54 -22 48 -9 -6 -16 18 -22 70 l-3
30 -8 -28z"/>
<path d="M1598 3 c881 -2 2323 -2 3205 0 881 1 160 2 -1603 2 -1763 0 -2484
-1 -1602 -2z"/>
</g>
</svg>
